<svg xmlns="http://www.w3.org/2000/svg" xmlns:xlink="http://www.w3.org/1999/xlink" viewBox="0 0 33.79 42.61"><defs><style>.cls-1{fill:url(#New_Gradient_Swatch);}.cls-2{fill:url(#New_Gradient_Swatch_copy);}.cls-3{fill:none;stroke:#3460aa;stroke-miterlimit:10;stroke-width:0.25px;}</style><linearGradient id="New_Gradient_Swatch" x1="9.54" y1="36.11" x2="24.15" y2="36.11" gradientUnits="userSpaceOnUse"><stop offset="0" stop-color="#fff"/><stop offset="1" stop-color="#f28e4a"/></linearGradient><linearGradient id="New_Gradient_Swatch_copy" x1="0.91" y1="16.31" x2="33.79" y2="16.31" gradientUnits="userSpaceOnUse"><stop offset="0" stop-color="#fff"/><stop offset="0.01" stop-color="#fffcfb"/><stop offset="0.24" stop-color="#fad5bc"/><stop offset="0.44" stop-color="#f7b78b"/><stop offset="0.62" stop-color="#f4a068"/><stop offset="0.76" stop-color="#f39352"/><stop offset="0.86" stop-color="#f28e4a"/></linearGradient></defs><g id="Layer_2" data-name="Layer 2"><g id="Layer_1-2" data-name="Layer 1"><path class="cls-1" d="M9.54,29.86V41.8a.85.85,0,0,0,.74.62.72.72,0,0,0,.49-.21l6-5,6.34,5a.77.77,0,0,0,.71.1.73.73,0,0,0,.37-.35V29.81"/><path class="cls-2" d="M13.63,1.41a5.05,5.05,0,0,1,7.17.18,6.34,6.34,0,0,1,4.87.84A5.89,5.89,0,0,1,28,5.52a5.58,5.58,0,0,1,3.73,2.7,5.36,5.36,0,0,1,.29,4.3,5,5,0,0,1,1.81,3.73,4.85,4.85,0,0,1-1.53,3.46,6,6,0,0,1-.57,4.67,6.17,6.17,0,0,1-3.63,2.71A5.46,5.46,0,0,1,25.86,30a5.92,5.92,0,0,1-4.87.56,4.49,4.49,0,0,1-3.25,2.06,4.41,4.41,0,0,1-4-1.87,5.77,5.77,0,0,1-4.68-.56A5.43,5.43,0,0,1,6.75,27,6,6,0,0,1,3,24.1,5.76,5.76,0,0,1,2.55,20,5,5,0,0,1,.93,16a4.87,4.87,0,0,1,1.53-3.08,5.36,5.36,0,0,1,.66-5A5.33,5.33,0,0,1,6.56,6a6,6,0,0,1,2.3-3.55A6.26,6.26,0,0,1,13.63,1.41Z"/><path class="cls-3" d="M12.21,2.28A4.84,4.84,0,0,1,15.75.92,4.78,4.78,0,0,1,19,2.46a5.91,5.91,0,0,1,4.63.82,5.74,5.74,0,0,1,2.18,3,5.32,5.32,0,0,1,3.54,2.64,5.24,5.24,0,0,1,.27,4.17,4.87,4.87,0,0,1,1.73,3.63,4.8,4.8,0,0,1-1.45,3.36,5.92,5.92,0,0,1-.55,4.54,5.83,5.83,0,0,1-3.45,2.63,5.29,5.29,0,0,1-2.09,2.82,5.54,5.54,0,0,1-4.63.54,4.25,4.25,0,0,1-3.08,2,4.12,4.12,0,0,1-3.81-1.82,5.33,5.33,0,0,1-4.45-.54,5.21,5.21,0,0,1-2.18-3.09,5.58,5.58,0,0,1-4-6.81,5,5,0,0,1-1.54-3.9,4.91,4.91,0,0,1,1.45-3,5.33,5.33,0,0,1,.64-4.9A5,5,0,0,1,5.5,6.73,5.78,5.78,0,0,1,7.68,3.28,5.88,5.88,0,0,1,12.21,2.28Z"/><circle class="cls-3" cx="15.75" cy="16.77" r="10.44"/><path class="cls-3" d="M15.75,22.4v0A25.3,25.3,0,0,0,20,19.14a8,8,0,0,0,1.6-2.07c1.55-3.59-2.44-6.33-5.86-3.69-3.42-2.66-7.42.09-5.86,3.68a7.93,7.93,0,0,0,1.59,2.07,24.63,24.63,0,0,0,4.22,3.24v0"/><path class="cls-3" d="M8.33,30.86V41.92a.84.84,0,0,0,.74.57.78.78,0,0,0,.49-.19l6-4.66L21.9,42.3a.81.81,0,0,0,.71.09.75.75,0,0,0,.38-.33V30.81"/></g></g></svg>