<svg xmlns="http://www.w3.org/2000/svg" xmlns:xlink="http://www.w3.org/1999/xlink" viewBox="0 0 40.67 39.1"><defs><style>.cls-1{fill:url(#New_Gradient_Swatch);}.cls-2,.cls-5{fill:none;stroke:#3460aa;stroke-miterlimit:10;stroke-width:0.25px;}.cls-3{fill:url(#New_Gradient_Swatch_copy);}.cls-4{fill:url(#New_Gradient_Swatch_copy-2);}.cls-5{stroke-linecap:round;}</style><linearGradient id="New_Gradient_Swatch" x1="2.55" y1="19.06" x2="40.67" y2="19.06" gradientUnits="userSpaceOnUse"><stop offset="0" stop-color="#fff"/><stop offset="1" stop-color="#f28e4a"/></linearGradient><linearGradient id="New_Gradient_Swatch_copy" x1="11.55" y1="24.73" x2="30.03" y2="24.73" gradientUnits="userSpaceOnUse"><stop offset="0" stop-color="#fff"/><stop offset="0.01" stop-color="#fffcfb"/><stop offset="0.24" stop-color="#fad5bc"/><stop offset="0.44" stop-color="#f7b78b"/><stop offset="0.62" stop-color="#f4a068"/><stop offset="0.76" stop-color="#f39352"/><stop offset="0.86" stop-color="#f28e4a"/></linearGradient><linearGradient id="New_Gradient_Swatch_copy-2" x1="17.71" y1="7.61" x2="33.9" y2="7.61" gradientTransform="translate(-16.18 3.82) rotate(-3.35)" xlink:href="#New_Gradient_Swatch_copy"/></defs><g id="Layer_2" data-name="Layer 2"><g id="Layer_1-2" data-name="Layer 1"><circle class="cls-1" cx="21.61" cy="19.06" r="19.06"/><circle class="cls-2" cx="19.52" cy="19.58" r="19.4"/><path class="cls-3" d="M13.8,13.87c1.54-1.21,4.07-1.72,5.55-.72,1,.68,1.37,1.94,2.74,2.16a4.67,4.67,0,0,0,1.09,0c.81.11,1.09,1.55,1.79,2.34.11.24,1.63-.12,2.66.22A3.33,3.33,0,0,1,29.43,19,2.56,2.56,0,0,1,30,20.86a2.71,2.71,0,0,1-1.44,1.94.19.19,0,0,0-.08.23,3.15,3.15,0,0,1-.06,2.66,3.07,3.07,0,0,1-2.63,1.59.22.22,0,0,0-.23.24,2.73,2.73,0,0,1-.39,1.7,3.57,3.57,0,0,1-1.65,1.15,30.5,30.5,0,0,0-2.69,1.47.32.32,0,0,0-.17.33,7.91,7.91,0,0,1-.1,2.16c-.17,1-.4,2.19-1.08,2.45s-2.08-.66-3.14-2.4a.17.17,0,0,1,0-.1,49.19,49.19,0,0,1,0-5.57c.06-1.05.16-2.05.27-3a.2.2,0,0,0-.12-.21A9.88,9.88,0,0,1,12,22.05a.13.13,0,0,1,0-.07,8.52,8.52,0,0,1-.21-4.14A6.27,6.27,0,0,1,13.8,13.87Z"/><path class="cls-2" d="M12.79,16.29c1.25-1,3.3-1.4,4.5-.58.8.55,1.11,1.57,2.22,1.75a3.48,3.48,0,0,0,.89,0c.66.1.88,1.26,1.45,1.9.09.19,1.33-.09,2.16.18a2.67,2.67,0,0,1,1.46.88A2,2,0,0,1,25.94,22a2.17,2.17,0,0,1-1.16,1.57.14.14,0,0,0-.07.18,2.54,2.54,0,0,1-.05,2.16,2.48,2.48,0,0,1-2.14,1.29.18.18,0,0,0-.18.2A2.22,2.22,0,0,1,22,28.75a2.94,2.94,0,0,1-1.35.93c-.54.27-1.28.65-2.18,1.19a.3.3,0,0,0-.14.27,6.48,6.48,0,0,1-.08,1.76c-.14.78-.32,1.77-.87,2s-1.7-.54-2.55-2a.09.09,0,0,1,0-.07,40,40,0,0,1,0-4.52c.05-.86.13-1.67.22-2.45a.16.16,0,0,0-.1-.17,8.12,8.12,0,0,1-2.4-1.42,8,8,0,0,1-1.26-1.37.09.09,0,0,1,0-.06,6.84,6.84,0,0,1-.17-3.36A5.11,5.11,0,0,1,12.79,16.29Z"/><path class="cls-4" d="M13.44,1.34c.8.21,1,.6,1,.7a2.11,2.11,0,0,1,.11,1.16c-.13.42.66,0,.55.06.62-.18.6.3,1.66.66a1.5,1.5,0,0,1,.92.61,1.6,1.6,0,0,1,.11,1.16,2.33,2.33,0,0,1-.69,1.11,4.27,4.27,0,0,1-1.31.92,9.6,9.6,0,0,0-1.41.76,1.21,1.21,0,0,0-.38.33c-.29.4-.11.75-.23,1.26A2.87,2.87,0,0,1,13,11.19a4.56,4.56,0,0,1-1.17,1.05A3.21,3.21,0,0,1,10,12.8c-.45,0-.52-.16-1.42-.28-.72-.08-.93,0-1.06.11a.79.79,0,0,0,0,.76c.22.52.74.41,1.2.91a6.18,6.18,0,0,1,.53,1.54,3.7,3.7,0,0,1,.27,1.59,1.14,1.14,0,0,1-.3.82c-.27.2-.7.08-1.56-.18a2.35,2.35,0,0,1-1-.47c-.33-.32-.21-.51-.48-.73s-.63-.08-1.56-.22a2.26,2.26,0,0,1-1.08-.34c-.08-.06-.27-.22-.68-1a5.7,5.7,0,0,1-.51-1.17,4.93,4.93,0,0,1-.11-.79C2,10.45,5.57,6.76,5.57,6.76A24.81,24.81,0,0,1,13.44,1.34Z"/><path class="cls-5" d="M12.45,2.18a1.28,1.28,0,0,1,.85.65,1.24,1.24,0,0,1,0,1c-.13.36.57,0,.47.09.56-.13.51.29,1.42.65a1.27,1.27,0,0,1,.77.57,1.29,1.29,0,0,1,0,1,2,2,0,0,1-.65.93,4.08,4.08,0,0,1-1.2.73,7.92,7.92,0,0,0-1.27.58,1.21,1.21,0,0,0-.35.27c-.27.33-.13.64-.27,1.08a2.42,2.42,0,0,1-.73.92,4,4,0,0,1-1.08.85,2.78,2.78,0,0,1-1.65.38c-.4,0-.45-.16-1.23-.3-.63-.12-.82-.08-.93,0a.67.67,0,0,0-.08.66c.17.46.63.38,1,.85A5.51,5.51,0,0,1,8,14.46a3.25,3.25,0,0,1,.15,1.39c-.05.29-.09.55-.3.69s-.62,0-1.35-.23a2.07,2.07,0,0,1-.89-.46c-.27-.29-.15-.45-.38-.65s-.55-.1-1.35-.27a2,2,0,0,1-.93-.35,2.43,2.43,0,0,1-.53-.92,8.08,8.08,0,0,1-.39-1"/></g></g></svg>