<svg xmlns="http://www.w3.org/2000/svg" width="375" viewBox="0 0 375 150" height="150" version="1.0"><defs><clipPath id="a"><path d="M 44 18.796875 L 138 18.796875 L 138 94 L 44 94 Z M 44 18.796875"/></clipPath><clipPath id="b"><path d="M 4 18.796875 L 106 18.796875 L 106 131 L 4 131 Z M 4 18.796875"/></clipPath></defs><g clip-path="url(#a)"><path fill="#FF9045" d="M 110.308594 93.320312 L 127.535156 76.179688 C 140.429688 62.96875 140.429688 41.507812 127.515625 28.339844 C 121.570312 22.28125 113.03125 18.808594 104.085938 18.808594 C 104.085938 18.808594 104.074219 18.808594 104.074219 18.808594 C 95.136719 18.808594 86.617188 22.289062 80.691406 28.339844 L 72.320312 36.871094 L 72.308594 36.871094 C 72.300781 36.878906 72.300781 36.886719 72.292969 36.898438 L 45.933594 62.882812 C 43.992188 64.847656 43.992188 68.070312 45.960938 70.042969 C 47.808594 71.914062 51.070312 71.96875 53.078125 70.015625 L 69.699219 53.824219 C 70.527344 53.015625 71.761719 52.976562 72.679688 53.609375 L 72.710938 53.574219 C 75.980469 55.824219 80.113281 56.496094 84.324219 55.460938 C 87.425781 54.691406 90.335938 53.070312 92.519531 50.871094 C 93.445312 49.941406 94.953125 49.933594 95.882812 50.863281 C 96.808594 51.792969 96.820312 53.304688 95.890625 54.234375 C 93.101562 57.035156 89.40625 59.113281 85.457031 60.089844 C 83.773438 60.5 82.113281 60.703125 80.46875 60.703125 C 80.246094 60.703125 80.03125 60.667969 79.796875 60.65625 L 107.867188 88.914062 C 109.109375 90.179688 109.902344 91.707031 110.308594 93.320312"/></g><g clip-path="url(#b)"><path fill="#FF9045" d="M 77.039062 78.328125 L 97.507812 98.847656 C 97.609375 98.925781 97.710938 99.007812 97.777344 99.074219 C 99.570312 100.878906 102.691406 100.878906 104.492188 99.074219 C 106.351562 97.203125 106.351562 94.15625 104.492188 92.285156 L 71.335938 58.890625 L 56.394531 73.433594 C 54.5 75.277344 52.054688 76.289062 49.5 76.289062 C 46.917969 76.289062 44.398438 75.238281 42.589844 73.402344 C 38.777344 69.578125 38.777344 63.339844 42.589844 59.503906 L 67.265625 35.167969 L 60.574219 28.339844 C 54.628906 22.28125 46.089844 18.796875 37.152344 18.796875 C 37.144531 18.796875 37.144531 18.796875 37.132812 18.796875 C 28.207031 18.808594 19.675781 22.28125 13.738281 28.339844 C 0.796875 41.515625 0.796875 62.976562 13.738281 76.1875 L 67.265625 129.425781 C 69.058594 131.222656 72.1875 131.222656 73.972656 129.425781 C 75.832031 127.535156 75.839844 124.472656 73.972656 122.601562 C 73.972656 122.601562 73.972656 122.589844 73.964844 122.589844 L 53.367188 101.949219 C 52.4375 101.019531 52.4375 99.511719 53.367188 98.578125 C 54.292969 97.648438 55.800781 97.648438 56.730469 98.578125 L 77.300781 119.191406 C 77.375 119.25 77.429688 119.304688 77.464844 119.34375 C 79.257812 121.140625 82.390625 121.140625 84.183594 119.34375 C 86.023438 117.460938 86.023438 114.398438 84.175781 112.515625 C 84.128906 112.460938 84.101562 112.40625 84.054688 112.351562 L 63.566406 91.820312 C 62.648438 90.890625 62.648438 89.378906 63.566406 88.449219 C 64.496094 87.519531 66 87.519531 66.941406 88.449219 L 87.554688 109.117188 C 87.574219 109.136719 87.585938 109.15625 87.59375 109.175781 C 89.386719 110.953125 92.5 110.953125 94.292969 109.15625 C 96.148438 107.285156 96.148438 104.242188 94.292969 102.359375 L 73.667969 81.699219 C 72.746094 80.769531 72.746094 79.261719 73.667969 78.328125 C 74.59375 77.398438 76.101562 77.398438 77.039062 78.328125"/></g><g fill="#111"><g><g><path d="M 18.984375 0.515625 C 15.617188 0.515625 12.691406 -0.25 10.203125 -1.78125 C 7.722656 -3.320312 5.804688 -5.5 4.453125 -8.3125 C 3.109375 -11.125 2.4375 -14.445312 2.4375 -18.28125 C 2.4375 -22.175781 3.144531 -25.539062 4.5625 -28.375 C 5.976562 -31.21875 7.957031 -33.410156 10.5 -34.953125 C 13.039062 -36.492188 16.003906 -37.265625 19.390625 -37.265625 C 21.578125 -37.265625 23.566406 -36.914062 25.359375 -36.21875 C 27.160156 -35.53125 28.726562 -34.582031 30.0625 -33.375 C 31.394531 -32.175781 32.4375 -30.816406 33.1875 -29.296875 C 33.9375 -27.773438 34.347656 -26.203125 34.421875 -24.578125 L 26.59375 -24.578125 C 26.375 -25.753906 25.9375 -26.820312 25.28125 -27.78125 C 24.625 -28.75 23.785156 -29.523438 22.765625 -30.109375 C 21.753906 -30.691406 20.570312 -30.984375 19.21875 -30.984375 C 17.59375 -30.984375 16.117188 -30.5625 14.796875 -29.71875 C 13.472656 -28.882812 12.429688 -27.550781 11.671875 -25.71875 C 10.910156 -23.894531 10.53125 -21.484375 10.53125 -18.484375 C 10.53125 -16.054688 10.78125 -14.035156 11.28125 -12.421875 C 11.78125 -10.816406 12.453125 -9.539062 13.296875 -8.59375 C 14.140625 -7.65625 15.101562 -6.992188 16.1875 -6.609375 C 17.28125 -6.222656 18.394531 -6.03125 19.53125 -6.03125 C 20.613281 -6.03125 21.582031 -6.210938 22.4375 -6.578125 C 23.289062 -6.941406 24.019531 -7.410156 24.625 -7.984375 C 25.238281 -8.554688 25.722656 -9.1875 26.078125 -9.875 C 26.429688 -10.5625 26.660156 -11.234375 26.765625 -11.890625 L 27.046875 -14.140625 L 19.453125 -14.140625 L 19.453125 -19.265625 L 34.828125 -19.1875 L 34.828125 0 L 29.765625 0 L 29.765625 -4.8125 C 29.140625 -3.976562 28.363281 -3.148438 27.4375 -2.328125 C 26.519531 -1.503906 25.378906 -0.820312 24.015625 -0.28125 C 22.648438 0.25 20.972656 0.515625 18.984375 0.515625 Z M 18.984375 0.515625" transform="translate(153.912 72.335)"/></g></g></g><g fill="#111"><g><g><path d="M 4.125 -36.765625 L 11.515625 -36.765625 L 11.515625 0 L 4.125 0 Z M 4.125 -36.765625" transform="translate(197.067 72.335)"/></g></g></g><g fill="#111"><g><g><path d="M 34.65625 -36.765625 L 21.96875 0 L 13.546875 0 L 0.96875 -36.765625 L 8.0625 -36.765625 L 17.765625 -8.625 L 27.5625 -36.765625 Z M 34.65625 -36.765625" transform="translate(217.273 72.335)"/></g></g></g><g fill="#111"><g><g><path d="M 4.125 -36.765625 L 11.515625 -36.765625 L 11.515625 0 L 4.125 0 Z M 4.125 -36.765625" transform="translate(257.455 72.335)"/></g></g></g><g fill="#111"><g><g><path d="M 28.25 -36.765625 L 35.671875 -36.765625 L 35.671875 0 L 28.984375 0 L 11.515625 -25.296875 L 11.515625 0 L 4.125 0 L 4.125 -36.765625 L 11.46875 -36.765625 L 28.25 -12.4375 Z M 28.25 -36.765625" transform="translate(277.66 72.335)"/></g></g></g><g fill="#111"><g><g><path d="M 18.984375 0.515625 C 15.617188 0.515625 12.691406 -0.25 10.203125 -1.78125 C 7.722656 -3.320312 5.804688 -5.5 4.453125 -8.3125 C 3.109375 -11.125 2.4375 -14.445312 2.4375 -18.28125 C 2.4375 -22.175781 3.144531 -25.539062 4.5625 -28.375 C 5.976562 -31.21875 7.957031 -33.410156 10.5 -34.953125 C 13.039062 -36.492188 16.003906 -37.265625 19.390625 -37.265625 C 21.578125 -37.265625 23.566406 -36.914062 25.359375 -36.21875 C 27.160156 -35.53125 28.726562 -34.582031 30.0625 -33.375 C 31.394531 -32.175781 32.4375 -30.816406 33.1875 -29.296875 C 33.9375 -27.773438 34.347656 -26.203125 34.421875 -24.578125 L 26.59375 -24.578125 C 26.375 -25.753906 25.9375 -26.820312 25.28125 -27.78125 C 24.625 -28.75 23.785156 -29.523438 22.765625 -30.109375 C 21.753906 -30.691406 20.570312 -30.984375 19.21875 -30.984375 C 17.59375 -30.984375 16.117188 -30.5625 14.796875 -29.71875 C 13.472656 -28.882812 12.429688 -27.550781 11.671875 -25.71875 C 10.910156 -23.894531 10.53125 -21.484375 10.53125 -18.484375 C 10.53125 -16.054688 10.78125 -14.035156 11.28125 -12.421875 C 11.78125 -10.816406 12.453125 -9.539062 13.296875 -8.59375 C 14.140625 -7.65625 15.101562 -6.992188 16.1875 -6.609375 C 17.28125 -6.222656 18.394531 -6.03125 19.53125 -6.03125 C 20.613281 -6.03125 21.582031 -6.210938 22.4375 -6.578125 C 23.289062 -6.941406 24.019531 -7.410156 24.625 -7.984375 C 25.238281 -8.554688 25.722656 -9.1875 26.078125 -9.875 C 26.429688 -10.5625 26.660156 -11.234375 26.765625 -11.890625 L 27.046875 -14.140625 L 19.453125 -14.140625 L 19.453125 -19.265625 L 34.828125 -19.1875 L 34.828125 0 L 29.765625 0 L 29.765625 -4.8125 C 29.140625 -3.976562 28.363281 -3.148438 27.4375 -2.328125 C 26.519531 -1.503906 25.378906 -0.820312 24.015625 -0.28125 C 22.648438 0.25 20.972656 0.515625 18.984375 0.515625 Z M 18.984375 0.515625" transform="translate(321.985 72.335)"/></g></g></g><g fill="#111"><g><g><path d="M 1.296875 0 L 1.296875 -11.609375 L 5.515625 -11.609375 C 7.035156 -11.609375 8.160156 -11.347656 8.890625 -10.828125 C 9.628906 -10.304688 10 -9.550781 10 -8.5625 C 10 -7.988281 9.847656 -7.488281 9.546875 -7.0625 C 9.253906 -6.632812 8.734375 -6.265625 7.984375 -5.953125 C 8.472656 -5.828125 8.863281 -5.660156 9.15625 -5.453125 C 9.457031 -5.242188 9.6875 -5.007812 9.84375 -4.75 C 10.007812 -4.5 10.117188 -4.234375 10.171875 -3.953125 C 10.234375 -3.679688 10.265625 -3.410156 10.265625 -3.140625 C 10.265625 -2.078125 9.898438 -1.285156 9.171875 -0.765625 C 8.453125 -0.253906 7.296875 0 5.703125 0 Z M 3.640625 -1.8125 L 5.75 -1.8125 C 6.457031 -1.8125 6.988281 -1.953125 7.34375 -2.234375 C 7.707031 -2.523438 7.890625 -2.90625 7.890625 -3.375 C 7.890625 -3.71875 7.800781 -4.003906 7.625 -4.234375 C 7.445312 -4.472656 7.207031 -4.648438 6.90625 -4.765625 C 6.601562 -4.890625 6.257812 -4.953125 5.875 -4.953125 L 3.640625 -4.953125 Z M 3.640625 -6.8125 L 5.875 -6.8125 C 6.113281 -6.8125 6.34375 -6.835938 6.5625 -6.890625 C 6.789062 -6.953125 6.988281 -7.039062 7.15625 -7.15625 C 7.332031 -7.269531 7.472656 -7.421875 7.578125 -7.609375 C 7.679688 -7.796875 7.734375 -8.015625 7.734375 -8.265625 C 7.734375 -8.765625 7.546875 -9.144531 7.171875 -9.40625 C 6.796875 -9.664062 6.3125 -9.796875 5.71875 -9.796875 L 3.640625 -9.796875 Z M 3.640625 -6.8125" transform="translate(156.845 94.768)"/></g></g></g><g fill="#111"><g><g><path d="M 1.296875 0 L 1.296875 -11.609375 L 9.28125 -11.609375 L 9.265625 -9.640625 L 3.65625 -9.640625 L 3.65625 -6.8125 L 8.53125 -6.8125 L 8.53125 -4.890625 L 3.640625 -4.890625 L 3.640625 -2 L 9.359375 -1.984375 L 9.359375 0 Z M 1.296875 0" transform="translate(167.595 94.768)"/></g></g></g><g fill="#111"><g><g><path d="M 1.296875 0 L 1.296875 -11.609375 L 5.578125 -11.609375 C 6.421875 -11.609375 7.175781 -11.460938 7.84375 -11.171875 C 8.507812 -10.878906 9.035156 -10.445312 9.421875 -9.875 C 9.816406 -9.3125 10.015625 -8.625 10.015625 -7.8125 C 10.015625 -7.039062 9.84375 -6.378906 9.5 -5.828125 C 9.15625 -5.285156 8.671875 -4.867188 8.046875 -4.578125 C 7.429688 -4.285156 6.707031 -4.140625 5.875 -4.140625 L 3.65625 -4.140625 L 3.65625 0 Z M 3.640625 -5.953125 L 5.8125 -5.953125 C 6.40625 -5.953125 6.890625 -6.140625 7.265625 -6.515625 C 7.640625 -6.898438 7.828125 -7.367188 7.828125 -7.921875 C 7.828125 -8.503906 7.628906 -8.960938 7.234375 -9.296875 C 6.835938 -9.640625 6.351562 -9.8125 5.78125 -9.8125 L 3.640625 -9.8125 Z M 3.640625 -5.953125" transform="translate(180.706 94.768)"/></g></g></g><g fill="#111"><g><g><path d="M 0.4375 0 L 4.609375 -11.609375 L 7.078125 -11.609375 L 11.234375 0 L 8.890625 0 L 7.9375 -2.6875 L 3.765625 -2.6875 L 2.796875 0 Z M 4.28125 -4.734375 L 7.375 -4.734375 L 5.84375 -9.34375 Z M 4.28125 -4.734375" transform="translate(190.943 94.768)"/></g></g></g><g fill="#111"><g><g><path d="M 10.3125 0 L 7.875 0 L 5.984375 -4.46875 L 3.640625 -4.46875 L 3.640625 0 L 1.296875 0 L 1.296875 -11.609375 L 6.203125 -11.609375 C 7.128906 -11.609375 7.882812 -11.460938 8.46875 -11.171875 C 9.0625 -10.878906 9.492188 -10.46875 9.765625 -9.9375 C 10.046875 -9.414062 10.1875 -8.816406 10.1875 -8.140625 C 10.1875 -7.535156 10.09375 -7.019531 9.90625 -6.59375 C 9.71875 -6.175781 9.46875 -5.828125 9.15625 -5.546875 C 8.851562 -5.265625 8.519531 -5.035156 8.15625 -4.859375 Z M 5.78125 -6.28125 C 6.40625 -6.28125 6.898438 -6.445312 7.265625 -6.78125 C 7.640625 -7.125 7.828125 -7.5625 7.828125 -8.09375 C 7.828125 -8.625 7.648438 -9.046875 7.296875 -9.359375 C 6.941406 -9.671875 6.492188 -9.828125 5.953125 -9.828125 L 3.640625 -9.828125 L 3.640625 -6.28125 Z M 5.78125 -6.28125" transform="translate(202.368 94.768)"/></g></g></g><g fill="#111"><g><g><path d="M 0.3125 -9.53125 L 0.3125 -11.609375 L 9.59375 -11.609375 L 9.59375 -9.53125 L 6.171875 -9.53125 L 6.171875 0 L 3.8125 0 L 3.8125 -9.53125 Z M 0.3125 -9.53125" transform="translate(213.303 94.768)"/></g></g></g><g fill="#111"><g><g><path d="M 6.125 0.15625 C 5.03125 0.15625 4.082031 -0.0820312 3.28125 -0.5625 C 2.476562 -1.039062 1.859375 -1.722656 1.421875 -2.609375 C 0.984375 -3.492188 0.765625 -4.550781 0.765625 -5.78125 C 0.765625 -7.019531 0.984375 -8.082031 1.421875 -8.96875 C 1.867188 -9.863281 2.492188 -10.554688 3.296875 -11.046875 C 4.097656 -11.535156 5.039062 -11.78125 6.125 -11.78125 C 7.207031 -11.78125 8.144531 -11.535156 8.9375 -11.046875 C 9.738281 -10.566406 10.351562 -9.878906 10.78125 -8.984375 C 11.21875 -8.085938 11.4375 -7.019531 11.4375 -5.78125 C 11.4375 -4.550781 11.222656 -3.492188 10.796875 -2.609375 C 10.367188 -1.722656 9.753906 -1.039062 8.953125 -0.5625 C 8.160156 -0.0820312 7.21875 0.15625 6.125 0.15625 Z M 6.125 -1.765625 C 6.695312 -1.765625 7.1875 -1.898438 7.59375 -2.171875 C 8.007812 -2.441406 8.332031 -2.867188 8.5625 -3.453125 C 8.789062 -4.046875 8.90625 -4.8125 8.90625 -5.75 C 8.90625 -6.71875 8.789062 -7.5 8.5625 -8.09375 C 8.332031 -8.695312 8.007812 -9.140625 7.59375 -9.421875 C 7.175781 -9.703125 6.6875 -9.84375 6.125 -9.84375 C 5.5625 -9.84375 5.070312 -9.703125 4.65625 -9.421875 C 4.238281 -9.140625 3.914062 -8.695312 3.6875 -8.09375 C 3.457031 -7.5 3.34375 -6.71875 3.34375 -5.75 C 3.34375 -4.800781 3.457031 -4.035156 3.6875 -3.453125 C 3.914062 -2.867188 4.238281 -2.441406 4.65625 -2.171875 C 5.070312 -1.898438 5.5625 -1.765625 6.125 -1.765625 Z M 6.125 -1.765625" transform="translate(226.117 94.768)"/></g></g></g><g fill="#111"><g><g><path d="M 1.296875 -11.609375 L 9.203125 -11.609375 L 9.203125 -9.65625 L 3.65625 -9.65625 L 3.65625 -6.734375 L 8.453125 -6.734375 L 8.453125 -4.8125 L 3.65625 -4.8125 L 3.65625 0 L 1.296875 0 Z M 1.296875 -11.609375" transform="translate(238.088 94.768)"/></g></g></g><g fill="#111"><g><g><path d="M 0.3125 -9.53125 L 0.3125 -11.609375 L 9.59375 -11.609375 L 9.59375 -9.53125 L 6.171875 -9.53125 L 6.171875 0 L 3.8125 0 L 3.8125 -9.53125 Z M 0.3125 -9.53125" transform="translate(250.862 94.768)"/></g></g></g><g fill="#111"><g><g><path d="M 8.71875 -4.984375 L 3.640625 -4.984375 L 3.640625 0 L 1.296875 0 L 1.296875 -11.609375 L 3.640625 -11.609375 L 3.640625 -6.953125 L 8.71875 -6.953125 L 8.71875 -11.609375 L 11.0625 -11.609375 L 11.0625 0 L 8.71875 0 Z M 8.71875 -4.984375" transform="translate(260.512 94.768)"/></g></g></g><g fill="#111"><g><g><path d="M 1.296875 0 L 1.296875 -11.609375 L 9.28125 -11.609375 L 9.265625 -9.640625 L 3.65625 -9.640625 L 3.65625 -6.8125 L 8.53125 -6.8125 L 8.53125 -4.890625 L 3.640625 -4.890625 L 3.640625 -2 L 9.359375 -1.984375 L 9.359375 0 Z M 1.296875 0" transform="translate(272.636 94.768)"/></g></g></g><g fill="#111"><g><g><path d="M 6.03125 -11.78125 C 6.90625 -11.78125 7.679688 -11.601562 8.359375 -11.25 C 9.046875 -10.894531 9.597656 -10.414062 10.015625 -9.8125 C 10.441406 -9.207031 10.691406 -8.523438 10.765625 -7.765625 L 8.296875 -7.765625 C 8.222656 -8.171875 8.085938 -8.53125 7.890625 -8.84375 C 7.691406 -9.15625 7.429688 -9.398438 7.109375 -9.578125 C 6.796875 -9.753906 6.410156 -9.84375 5.953125 -9.84375 C 5.410156 -9.84375 4.941406 -9.710938 4.546875 -9.453125 C 4.160156 -9.191406 3.863281 -8.769531 3.65625 -8.1875 C 3.445312 -7.601562 3.34375 -6.832031 3.34375 -5.875 C 3.34375 -4.425781 3.570312 -3.378906 4.03125 -2.734375 C 4.5 -2.085938 5.140625 -1.765625 5.953125 -1.765625 C 6.410156 -1.765625 6.796875 -1.867188 7.109375 -2.078125 C 7.429688 -2.285156 7.691406 -2.554688 7.890625 -2.890625 C 8.085938 -3.234375 8.222656 -3.609375 8.296875 -4.015625 L 10.765625 -4.015625 C 10.691406 -3.460938 10.554688 -2.9375 10.359375 -2.4375 C 10.160156 -1.9375 9.878906 -1.488281 9.515625 -1.09375 C 9.148438 -0.707031 8.679688 -0.398438 8.109375 -0.171875 C 7.535156 0.046875 6.84375 0.15625 6.03125 0.15625 C 4.945312 0.15625 4.007812 -0.09375 3.21875 -0.59375 C 2.4375 -1.09375 1.832031 -1.796875 1.40625 -2.703125 C 0.976562 -3.617188 0.765625 -4.6875 0.765625 -5.90625 C 0.765625 -7.125 0.976562 -8.171875 1.40625 -9.046875 C 1.832031 -9.921875 2.4375 -10.59375 3.21875 -11.0625 C 4.007812 -11.539062 4.945312 -11.78125 6.03125 -11.78125 Z M 6.03125 -11.78125" transform="translate(285.747 94.768)"/></g></g></g><g fill="#111"><g><g><path d="M 8.71875 -4.984375 L 3.640625 -4.984375 L 3.640625 0 L 1.296875 0 L 1.296875 -11.609375 L 3.640625 -11.609375 L 3.640625 -6.953125 L 8.71875 -6.953125 L 8.71875 -11.609375 L 11.0625 -11.609375 L 11.0625 0 L 8.71875 0 Z M 8.71875 -4.984375" transform="translate(297.035 94.768)"/></g></g></g><g fill="#111"><g><g><path d="M 0.4375 0 L 4.609375 -11.609375 L 7.078125 -11.609375 L 11.234375 0 L 8.890625 0 L 7.9375 -2.6875 L 3.765625 -2.6875 L 2.796875 0 Z M 4.28125 -4.734375 L 7.375 -4.734375 L 5.84375 -9.34375 Z M 4.28125 -4.734375" transform="translate(309.159 94.768)"/></g></g></g><g fill="#111"><g><g><path d="M 8.921875 -11.609375 L 11.265625 -11.609375 L 11.265625 0 L 9.15625 0 L 3.640625 -7.984375 L 3.640625 0 L 1.296875 0 L 1.296875 -11.609375 L 3.625 -11.609375 L 8.921875 -3.921875 Z M 8.921875 -11.609375" transform="translate(320.583 94.768)"/></g></g></g><g fill="#111"><g><g><path d="M 6 0.15625 C 4.9375 0.15625 4.007812 -0.0820312 3.21875 -0.5625 C 2.4375 -1.050781 1.832031 -1.738281 1.40625 -2.625 C 0.976562 -3.507812 0.765625 -4.5625 0.765625 -5.78125 C 0.765625 -7.007812 0.988281 -8.070312 1.4375 -8.96875 C 1.882812 -9.863281 2.507812 -10.554688 3.3125 -11.046875 C 4.113281 -11.535156 5.050781 -11.78125 6.125 -11.78125 C 6.8125 -11.78125 7.4375 -11.664062 8 -11.4375 C 8.570312 -11.21875 9.066406 -10.914062 9.484375 -10.53125 C 9.910156 -10.15625 10.242188 -9.726562 10.484375 -9.25 C 10.722656 -8.769531 10.851562 -8.273438 10.875 -7.765625 L 8.40625 -7.765625 C 8.332031 -8.140625 8.191406 -8.476562 7.984375 -8.78125 C 7.773438 -9.082031 7.507812 -9.328125 7.1875 -9.515625 C 6.875 -9.703125 6.503906 -9.796875 6.078125 -9.796875 C 5.554688 -9.796875 5.085938 -9.660156 4.671875 -9.390625 C 4.253906 -9.128906 3.925781 -8.707031 3.6875 -8.125 C 3.445312 -7.550781 3.328125 -6.789062 3.328125 -5.84375 C 3.328125 -5.070312 3.40625 -4.429688 3.5625 -3.921875 C 3.71875 -3.421875 3.929688 -3.019531 4.203125 -2.71875 C 4.472656 -2.414062 4.773438 -2.203125 5.109375 -2.078125 C 5.453125 -1.960938 5.804688 -1.90625 6.171875 -1.90625 C 6.515625 -1.90625 6.820312 -1.960938 7.09375 -2.078125 C 7.363281 -2.191406 7.59375 -2.335938 7.78125 -2.515625 C 7.976562 -2.703125 8.128906 -2.90625 8.234375 -3.125 C 8.347656 -3.34375 8.421875 -3.554688 8.453125 -3.765625 L 8.546875 -4.46875 L 6.140625 -4.46875 L 6.140625 -6.09375 L 11 -6.0625 L 11 0 L 9.40625 0 L 9.40625 -1.515625 C 9.207031 -1.253906 8.960938 -0.992188 8.671875 -0.734375 C 8.378906 -0.472656 8.015625 -0.257812 7.578125 -0.09375 C 7.148438 0.0703125 6.625 0.15625 6 0.15625 Z M 6 0.15625" transform="translate(332.9 94.768)"/></g></g></g><g fill="#111"><g><g><path d="M 1.296875 0 L 1.296875 -11.609375 L 9.28125 -11.609375 L 9.265625 -9.640625 L 3.65625 -9.640625 L 3.65625 -6.8125 L 8.53125 -6.8125 L 8.53125 -4.890625 L 3.640625 -4.890625 L 3.640625 -2 L 9.359375 -1.984375 L 9.359375 0 Z M 1.296875 0" transform="translate(344.846 94.768)"/></g></g></g><g fill="#111"><g><g><path d="M 0.796875 0 L 0.796875 -2.546875 L 3.359375 -2.546875 L 3.359375 0 Z M 0.796875 0" transform="translate(354.794 94.768)"/></g></g></g></svg>