<svg width="251" height="204" viewBox="0 0 251 204" fill="none" xmlns="http://www.w3.org/2000/svg">
<path d="M103.076 181.067C153.076 181.067 193.609 140.533 193.609 90.5333C193.609 40.5331 153.076 0 103.076 0C53.0754 0 12.5422 40.5331 12.5422 90.5333C12.5422 140.533 53.0754 181.067 103.076 181.067Z" fill="url(#paint0_linear_335_372)"/>
<path d="M93.1483 185.151C144.04 185.151 185.297 143.895 185.297 93.0032C185.297 42.1111 144.04 0.854965 93.1483 0.854965C42.2562 0.854965 1 42.1111 1 93.0032C1 143.895 42.2562 185.151 93.1483 185.151Z" stroke="#3460AA" stroke-width="0.5" stroke-miterlimit="10"/>
<path d="M65.9787 65.8812C73.2936 60.1338 85.3109 57.7114 92.3407 62.4613C97.0907 65.6912 98.8481 71.6761 105.355 72.7211C107.075 72.9232 108.813 72.9232 110.533 72.7211C114.38 73.2436 115.71 80.0835 119.035 83.8359C119.558 84.9759 126.778 83.2659 131.67 84.8809C135.03 85.6881 138.033 87.5733 140.22 90.2483C142.25 92.7222 143.223 95.8966 142.927 99.0831C142.578 101.043 141.778 102.896 140.591 104.495C139.404 106.094 137.863 107.396 136.087 108.298C135.906 108.407 135.769 108.576 135.699 108.775C135.63 108.975 135.633 109.193 135.707 109.39C136.585 111.39 137.014 113.557 136.964 115.739C136.915 117.922 136.389 120.067 135.422 122.025C134.187 124.271 132.382 126.151 130.189 127.477C127.996 128.803 125.492 129.527 122.93 129.578C122.781 129.57 122.631 129.595 122.492 129.65C122.353 129.706 122.227 129.79 122.124 129.898C122.02 130.006 121.941 130.135 121.892 130.277C121.842 130.418 121.824 130.568 121.838 130.718C122.12 133.539 121.469 136.376 119.985 138.792C117.95 141.327 115.23 143.223 112.148 144.255C107.774 146.367 103.51 148.697 99.3706 151.237C99.0898 151.382 98.8611 151.611 98.7164 151.892C98.5716 152.173 98.5181 152.492 98.5631 152.805C98.8752 156.23 98.7154 159.682 98.0881 163.064C97.2806 167.814 96.1882 173.467 92.9582 174.702C89.7283 175.937 83.0784 171.567 78.0435 163.302C77.9959 163.147 77.9959 162.982 78.0435 162.827C77.5438 154.015 77.5438 145.182 78.0435 136.37C78.3285 131.382 78.8035 126.633 79.326 122.12C79.3529 121.914 79.3118 121.706 79.2089 121.526C79.1059 121.345 78.9469 121.204 78.756 121.123C70.2004 117.858 62.7869 112.162 57.4289 104.735C57.3985 104.627 57.3985 104.512 57.4289 104.403C55.4826 98.0302 55.1399 91.2754 56.4314 84.7384C57.2013 77.4968 60.5978 70.7883 65.9787 65.8812Z" fill="url(#paint1_linear_335_372)"/>
<path d="M61.1813 77.376C67.1187 72.6261 76.856 70.7261 82.5559 74.6211C86.3559 77.2335 87.8283 82.0784 93.1007 82.9334C94.5041 83.1143 95.9248 83.1143 97.3282 82.9334C100.463 83.4084 101.508 88.9183 104.216 91.9582C104.643 92.8607 110.533 91.5307 114.475 92.8132C117.182 93.4113 119.617 94.8795 121.41 96.9931C122.294 98.0136 122.951 99.2108 123.336 100.505C123.721 101.799 123.825 103.16 123.643 104.498C123.371 106.085 122.73 107.586 121.774 108.881C120.817 110.176 119.57 111.229 118.133 111.955C117.978 112.028 117.857 112.157 117.795 112.316C117.734 112.476 117.735 112.652 117.8 112.81C118.517 114.433 118.868 116.193 118.827 117.967C118.786 119.74 118.354 121.483 117.563 123.07C116.562 124.9 115.094 126.431 113.308 127.508C111.523 128.584 109.483 129.167 107.398 129.198C107.277 129.197 107.158 129.222 107.047 129.27C106.937 129.319 106.838 129.391 106.757 129.481C106.676 129.57 106.616 129.676 106.579 129.791C106.542 129.906 106.53 130.028 106.543 130.148C106.706 132.403 106.14 134.651 104.928 136.56C103.253 138.611 101.029 140.143 98.5156 140.977C95.9507 142.26 92.4357 144.065 88.1608 146.63C87.9457 146.765 87.7707 146.955 87.6538 147.18C87.5369 147.406 87.4823 147.659 87.4958 147.912C87.7504 150.703 87.6225 153.516 87.1158 156.272C86.4509 159.977 85.5959 164.679 82.9834 165.772C80.371 166.864 74.9086 163.207 70.8712 156.272C70.8489 156.219 70.8375 156.163 70.8375 156.106C70.8375 156.049 70.8489 155.992 70.8712 155.94C70.4665 148.789 70.4665 141.621 70.8712 134.47C71.1087 130.385 71.4886 126.538 71.9161 122.833C71.9385 122.664 71.9039 122.493 71.8179 122.347C71.7318 122.201 71.5991 122.087 71.4411 122.025C67.2807 120.451 63.4239 118.169 60.0414 115.28C57.8 113.351 55.7914 111.168 54.0565 108.773C54.0239 108.681 54.0239 108.58 54.0565 108.488C52.4628 103.318 52.1852 97.8324 53.249 92.5282C53.9671 86.6823 56.7864 81.297 61.1813 77.376Z" stroke="#3460AA" stroke-width="0.5" stroke-miterlimit="10"/>
<path d="M64.2687 6.36485C68.0686 7.36233 69.0186 9.2148 69.0186 9.68979C69.7064 11.441 69.8875 13.3504 69.5411 15.1997C68.9236 17.1946 72.676 15.1997 72.1535 15.4847C75.0984 14.6297 75.0035 16.9097 80.0384 18.6196C81.8103 18.9949 83.3729 20.0309 84.4083 21.5171C85.2688 23.2227 85.4553 25.1899 84.9308 27.027C84.3637 29.0611 83.2264 30.8906 81.6533 32.2994C79.8732 34.1352 77.762 35.6179 75.4309 36.6693C73.1018 37.6839 70.8616 38.8914 68.7336 40.2792C68.0287 40.6694 67.4137 41.2035 66.9286 41.8467C65.5511 43.7466 66.4061 45.4091 65.8361 47.8316C65.0605 49.8721 63.8062 51.6966 62.1787 53.1515C60.6289 55.1231 58.7485 56.8107 56.6213 58.1389C54.0617 59.8887 51.0295 60.8166 47.929 60.7988C45.7915 60.7988 45.459 60.0388 41.1841 59.4689C37.7641 59.0889 36.7667 59.4688 36.1492 59.9913C35.8457 60.5445 35.6866 61.1653 35.6866 61.7963C35.6866 62.4273 35.8457 63.0481 36.1492 63.6013C37.1942 66.0712 39.6641 65.5487 41.8491 67.9237C43.0072 70.2402 43.8537 72.6999 44.3665 75.2386C45.3441 77.6311 45.782 80.2098 45.649 82.7909C45.6791 83.5019 45.5687 84.2119 45.3242 84.8802C45.0797 85.5485 44.7058 86.1621 44.224 86.6858C42.9416 87.6358 40.8991 87.0658 36.8142 85.8308C35.0759 85.4748 33.4476 84.7095 32.0643 83.5984C30.4968 82.0784 31.0668 81.1759 29.7843 80.131C28.5018 79.086 26.7919 79.751 22.3744 79.086C20.5551 78.9917 18.7898 78.4359 17.2445 77.471C16.8645 77.186 15.9621 76.426 14.0146 72.7211C13.0016 70.9652 12.189 69.101 11.5921 67.1637C11.3169 65.9291 11.1422 64.6741 11.0697 63.4113C9.92968 49.6365 26.8869 32.1094 26.8869 32.1094C37.5615 21.1866 50.2575 12.443 64.2687 6.36485Z" fill="url(#paint2_linear_335_372)"/>
<path d="M59.5663 10.3548C60.4222 10.5476 61.2262 10.9234 61.9231 11.4564C62.62 11.9893 63.1933 12.6668 63.6037 13.4422C63.9335 14.1906 64.1037 14.9994 64.1037 15.8172C64.1037 16.635 63.9335 17.4438 63.6037 18.1921C62.9862 19.9021 66.3112 18.1921 65.8362 18.6196C68.4961 18.0021 68.2586 19.9971 72.581 21.7071C74.1069 22.0975 75.4195 23.0692 76.2385 24.4145C76.5546 25.1664 76.7174 25.9738 76.7174 26.7895C76.7174 27.6051 76.5546 28.4125 76.2385 29.1644C75.6573 30.9041 74.585 32.4383 73.151 33.5818C71.4658 35.0585 69.5373 36.2317 67.4511 37.0493C65.3632 37.7882 63.3445 38.7101 61.4187 39.8042C60.7905 40.126 60.227 40.5608 59.7563 41.0867C58.4738 42.6542 59.1388 44.1266 58.4738 46.2166C57.6943 47.9359 56.5035 49.4367 55.0064 50.5865C53.5421 52.2182 51.8066 53.5842 49.8765 54.6239C47.5152 56.0259 44.7757 56.6568 42.0391 56.4289C40.1391 56.4289 39.9016 55.6689 36.1967 55.0039C33.2043 54.4339 32.3018 54.6239 31.7793 55.0039C31.4486 55.4482 31.2397 55.9711 31.173 56.5209C31.1064 57.0708 31.1844 57.6284 31.3993 58.1389C32.2068 60.3238 34.3917 59.9438 36.1492 62.1763C37.1929 64.2354 37.9595 66.4235 38.4292 68.6837C39.1428 70.8067 39.3859 73.0596 39.1417 75.2861C38.9042 76.6635 38.7142 77.8985 37.7167 78.5635C36.7192 79.2285 34.7717 78.5635 31.3043 77.471C29.7375 77.0998 28.2859 76.3495 27.0769 75.2861C25.7944 73.9086 26.3644 73.1486 25.2719 72.1986C24.1794 71.2486 22.6595 71.7236 18.8595 70.9161C17.2707 70.7424 15.7513 70.1706 14.4421 69.2537C13.2911 68.0004 12.4314 66.5081 11.9247 64.8838C11.2026 63.3433 10.5837 61.7565 10.0722 60.1338" stroke="#3460AA" stroke-width="0.5" stroke-miterlimit="10" stroke-linecap="round"/>
<path d="M173.785 162.97V200.813C173.93 201.34 174.232 201.81 174.651 202.161C175.07 202.512 175.586 202.727 176.13 202.778C176.714 202.763 177.27 202.525 177.683 202.113L196.7 186.265L216.794 202.113C217.115 202.344 217.488 202.494 217.88 202.549C218.272 202.604 218.671 202.563 219.044 202.43C219.556 202.213 219.972 201.819 220.217 201.32V162.812" fill="url(#paint3_linear_335_372)"/>
<path d="M186.748 72.7998C188.273 71.3369 190.073 70.1904 192.043 69.4267C194.014 68.663 196.116 68.2971 198.229 68.3501C200.342 68.4032 202.423 68.8741 204.353 69.7357C206.283 70.5974 208.023 71.8327 209.473 73.3703C212.093 72.7581 214.809 72.6783 217.46 73.1356C220.112 73.593 222.644 74.5781 224.908 76.0326C228.402 78.3722 231.004 81.8231 232.292 85.8262C234.758 86.3293 237.089 87.3529 239.127 88.8286C241.166 90.3043 242.866 92.1982 244.114 94.3836C245.202 96.468 245.846 98.7555 246.004 101.101C246.162 103.447 245.832 105.801 245.034 108.012C246.78 109.458 248.195 111.261 249.185 113.301C250.175 115.34 250.715 117.568 250.77 119.834C250.738 121.894 250.292 123.926 249.459 125.81C248.626 127.693 247.423 129.391 245.921 130.8C246.633 133.262 246.839 135.842 246.529 138.385C246.218 140.929 245.397 143.383 244.114 145.602C241.507 149.82 237.395 152.89 232.609 154.191C231.379 157.993 228.87 161.251 225.51 163.414C223.213 164.795 220.647 165.668 217.985 165.974C215.322 166.28 212.625 166.012 210.075 165.189C208.949 166.972 207.441 168.483 205.659 169.613C203.878 170.742 201.868 171.461 199.774 171.718C197.326 171.931 194.866 171.496 192.64 170.455C190.414 169.415 188.502 167.806 187.096 165.791C184.638 166.556 182.046 166.793 179.49 166.487C176.934 166.181 174.472 165.339 172.263 164.016C168.644 161.681 166.031 158.073 164.942 153.906C162.441 153.261 160.097 152.114 158.053 150.533C156.01 148.953 154.31 146.973 153.057 144.714C150.994 140.707 150.486 136.079 151.63 131.72C149.882 130.124 148.514 128.157 147.625 125.963C146.737 123.769 146.351 121.404 146.496 119.042C146.871 115.306 148.595 111.836 151.345 109.28C150.367 106.67 150.046 103.859 150.411 101.095C150.776 98.3313 151.815 95.6999 153.437 93.4328C156.161 90.0864 160.062 87.9091 164.34 87.3475C165.323 82.8364 167.914 78.8372 171.63 76.096C173.8 74.5619 176.257 73.4796 178.854 72.9134C181.451 72.3472 184.135 72.3085 186.748 72.7998Z" fill="url(#paint4_linear_335_372)"/>
<path d="M182.247 75.5572C183.731 74.1205 185.489 72.9981 187.417 72.2574C189.345 71.5167 191.403 71.173 193.467 71.2468C197.405 71.4708 201.1 73.2219 203.768 76.1277C206.261 75.5338 208.85 75.458 211.374 75.905C213.898 76.352 216.304 77.3124 218.442 78.7267C221.734 81.0443 224.164 84.3884 225.351 88.235C227.712 88.7449 229.935 89.7559 231.87 91.1995C233.806 92.643 235.409 94.4855 236.571 96.6023C237.613 98.6287 238.226 100.848 238.373 103.122C238.521 105.395 238.198 107.675 237.427 109.819C239.107 111.236 240.466 112.995 241.411 114.979C242.357 116.963 242.868 119.126 242.91 121.324C242.844 125.341 241.192 129.169 238.314 131.973C238.992 134.367 239.188 136.872 238.888 139.343C238.589 141.813 237.801 144.199 236.571 146.362C234.134 150.444 230.218 153.429 225.637 154.698C224.51 158.344 222.173 161.497 219.012 163.636C216.838 164.97 214.398 165.814 211.864 166.11C209.33 166.406 206.761 166.145 204.338 165.347C203.288 167.066 201.867 168.528 200.177 169.625C198.488 170.722 196.574 171.427 194.576 171.686C192.23 171.903 189.869 171.482 187.743 170.466C185.617 169.451 183.806 167.879 182.501 165.918C180.167 166.674 177.696 166.912 175.26 166.617C172.824 166.321 170.482 165.499 168.397 164.206C164.948 161.922 162.483 158.427 161.487 154.413C159.237 153.83 157.123 152.808 155.267 151.408C153.412 150.007 151.851 148.254 150.673 146.249C149.496 144.245 148.725 142.028 148.405 139.725C148.085 137.422 148.223 135.079 148.81 132.829C147.15 131.245 145.854 129.319 145.011 127.185C144.168 125.051 143.799 122.759 143.929 120.468C144.305 116.86 145.931 113.497 148.524 110.96C147.584 108.4 147.277 105.65 147.63 102.945C147.983 100.241 148.986 97.6622 150.553 95.4296C153.146 92.2234 156.886 90.1541 160.98 89.6612C161.877 85.2975 164.334 81.4101 167.89 78.7267C169.943 77.2523 172.274 76.2111 174.743 75.6662C177.211 75.1213 179.764 75.0843 182.247 75.5572Z" stroke="#3460AA" stroke-width="0.5" stroke-miterlimit="10"/>
<path d="M193.467 154.571C211.741 154.571 226.556 139.757 226.556 121.482C226.556 103.208 211.741 88.3934 193.467 88.3934C175.192 88.3934 160.378 103.208 160.378 121.482C160.378 139.757 175.192 154.571 193.467 154.571Z" stroke="#3460AA" stroke-width="0.5" stroke-miterlimit="10"/>
<path d="M193.467 139.326C198.31 136.368 202.825 132.905 206.937 128.994C208.976 127.1 210.689 124.883 212.008 122.433C216.921 111.055 204.275 102.371 193.435 110.738C182.596 102.307 169.918 111.023 174.862 122.401C176.168 124.852 177.871 127.069 179.902 128.962C183.976 132.858 188.461 136.301 193.277 139.231V139.231" stroke="#3460AA" stroke-miterlimit="10"/>
<path d="M169.95 166.14V201.193C170.118 201.693 170.431 202.131 170.848 202.453C171.266 202.774 171.769 202.965 172.295 203C172.867 202.985 173.416 202.772 173.848 202.398L192.865 187.628L212.959 202.398C213.287 202.615 213.661 202.753 214.051 202.802C214.441 202.852 214.837 202.811 215.209 202.683C215.719 202.484 216.145 202.114 216.414 201.637V165.981" stroke="#3460AA" stroke-width="0.5" stroke-miterlimit="10"/>
<defs>
<linearGradient id="paint0_linear_335_372" x1="12.5422" y1="90.5333" x2="193.609" y2="90.5333" gradientUnits="userSpaceOnUse">
<stop stop-color="white"/>
<stop offset="1" stop-color="#F28E4A"/>
</linearGradient>
<linearGradient id="paint1_linear_335_372" x1="55.2914" y1="117.465" x2="143.07" y2="117.465" gradientUnits="userSpaceOnUse">
<stop stop-color="white"/>
<stop offset="0.01" stop-color="#FFFCFB"/>
<stop offset="0.24" stop-color="#FAD5BC"/>
<stop offset="0.44" stop-color="#F7B78B"/>
<stop offset="0.62" stop-color="#F4A068"/>
<stop offset="0.76" stop-color="#F39352"/>
<stop offset="0.86" stop-color="#F28E4A"/>
</linearGradient>
<linearGradient id="paint2_linear_335_372" x1="70" y1="-7.5" x2="-12" y2="54" gradientUnits="userSpaceOnUse">
<stop stop-color="#FF9045"/>
<stop offset="1" stop-color="white"/>
</linearGradient>
<linearGradient id="paint3_linear_335_372" x1="173.785" y1="182.779" x2="220.09" y2="182.779" gradientUnits="userSpaceOnUse">
<stop stop-color="white"/>
<stop offset="1" stop-color="#F28E4A"/>
</linearGradient>
<linearGradient id="paint4_linear_335_372" x1="146.433" y1="120.024" x2="250.643" y2="120.024" gradientUnits="userSpaceOnUse">
<stop stop-color="white"/>
<stop offset="0.01" stop-color="#FFFCFB"/>
<stop offset="0.24" stop-color="#FAD5BC"/>
<stop offset="0.44" stop-color="#F7B78B"/>
<stop offset="0.62" stop-color="#F4A068"/>
<stop offset="0.76" stop-color="#F39352"/>
<stop offset="0.86" stop-color="#F28E4A"/>
</linearGradient>
</defs>
</svg>
