<svg width="37" height="32" viewBox="0 0 37 32" fill="none" xmlns="http://www.w3.org/2000/svg">
<path fill-rule="evenodd" clip-rule="evenodd" d="M4.79133 22.3899H1.99573C1.80442 22.3899 1.64172 22.5289 1.61189 22.7177L0.481204 29.8865C0.458731 30.028 0.56828 30.1555 0.711764 30.1555H2.04641C2.23772 30.1555 2.40042 30.0164 2.43025 29.8273L2.73521 27.8938C2.76463 27.7044 2.92773 27.5656 3.11864 27.5656H4.00363C5.84519 27.5656 6.90794 26.6744 7.18564 24.9085C7.31068 24.1359 7.19093 23.5289 6.82905 23.1036C6.4318 22.6369 5.72696 22.3899 4.79133 22.3899ZM5.11386 25.0082C4.96101 26.0113 4.19454 26.0113 3.45343 26.0113H3.03156L3.32752 24.1378C3.34509 24.0247 3.44319 23.9413 3.55766 23.9413H3.75101C4.25584 23.9413 4.73212 23.9413 4.97823 24.229C5.12483 24.4008 5.16985 24.6558 5.11386 25.0082ZM13.1481 24.976H11.8093C11.6952 24.976 11.5967 25.0594 11.5791 25.1728L11.5199 25.5471L11.4262 25.4115C11.1364 24.9908 10.4902 24.8502 9.84517 24.8502C8.36567 24.8502 7.10221 25.9707 6.85611 27.5425C6.72823 28.3264 6.91002 29.0761 7.35476 29.5989C7.76279 30.0796 8.34657 30.2799 9.04101 30.2799C10.233 30.2799 10.8941 29.5134 10.8941 29.5134L10.8343 29.8855C10.8118 30.0278 10.9213 30.1553 11.064 30.1553H12.2699C12.4618 30.1553 12.6235 30.0162 12.6538 29.8271L13.3773 25.245C13.4002 25.1041 13.2911 24.976 13.1481 24.976ZM11.2819 27.5816C11.1527 28.3464 10.5457 28.8599 9.77158 28.8599C9.38284 28.8599 9.07203 28.7352 8.87265 28.4989C8.67478 28.2643 8.59949 27.9303 8.66248 27.5584C8.78317 26.8 9.40043 26.2699 10.1628 26.2699C10.5428 26.2699 10.8519 26.3961 11.0555 26.6345C11.2594 26.8753 11.3404 27.2112 11.2819 27.5816ZM18.9327 24.9758H20.278C20.4664 24.9758 20.5763 25.1871 20.4693 25.3417L15.9949 31.8003C15.9224 31.9049 15.803 31.9671 15.6755 31.9671H14.3319C14.1427 31.9671 14.0322 31.7541 14.1418 31.5992L15.535 29.6326L14.0532 25.284C14.002 25.1328 14.1136 24.9758 14.2744 24.9758H15.5963C15.768 24.9758 15.9196 25.0886 15.9691 25.253L16.7555 27.8794L18.6111 25.1463C18.6837 25.0396 18.8044 24.9758 18.9327 24.9758Z" fill="#253B80"/>
<path fill-rule="evenodd" clip-rule="evenodd" d="M33.5187 29.8861L34.666 22.5863C34.6836 22.473 34.7818 22.3895 34.8959 22.3892H36.1875C36.3302 22.3892 36.4397 22.517 36.4172 22.6585L35.2858 29.8269C35.2562 30.0161 35.0936 30.1551 34.9019 30.1551H33.7484C33.6058 30.1551 33.4962 30.0276 33.5187 29.8861ZM24.732 22.3895H21.9359C21.745 22.3895 21.5823 22.5286 21.5525 22.7174L20.4218 29.8861C20.3993 30.0276 20.5088 30.1551 20.6516 30.1551H22.0863C22.2197 30.1551 22.3337 30.0579 22.3545 29.9255L22.6754 27.8934C22.7049 27.7041 22.8679 27.5652 23.0588 27.5652H23.9434C25.7853 27.5652 26.8479 26.674 27.1258 24.9081C27.2512 24.1356 27.1307 23.5285 26.769 23.1033C26.3719 22.6366 25.6676 22.3895 24.732 22.3895ZM25.0545 25.0078C24.9021 26.011 24.1356 26.011 23.394 26.011H22.9725L23.269 24.1375C23.2866 24.0243 23.3838 23.9409 23.4986 23.9409H23.692C24.1965 23.9409 24.6732 23.9409 24.9191 24.2286C25.0659 24.4004 25.1105 24.6554 25.0545 25.0078ZM33.088 24.9757H31.7502C31.6352 24.9757 31.5376 25.0591 31.5203 25.1724L31.4611 25.5468L31.3671 25.4111C31.0773 24.9904 30.4315 24.8499 29.7864 24.8499C28.3069 24.8499 27.0438 25.9703 26.7977 27.5421C26.6702 28.326 26.8513 29.0757 27.296 29.5986C27.7048 30.0793 28.2878 30.2796 28.9823 30.2796C30.1742 30.2796 30.8352 29.5131 30.8352 29.5131L30.7756 29.8852C30.7531 30.0274 30.8626 30.1549 31.0062 30.1549H32.2116C32.4024 30.1549 32.5651 30.0159 32.595 29.8267L33.319 25.2447C33.3411 25.1037 33.2316 24.9757 33.088 24.9757ZM31.222 27.5813C31.0936 28.3461 30.4858 28.8595 29.7115 28.8595C29.3235 28.8595 29.0122 28.7348 28.8126 28.4986C28.6147 28.264 28.5404 27.9299 28.6026 27.558C28.7239 26.7996 29.3404 26.2696 30.1027 26.2696C30.4829 26.2696 30.7919 26.3958 30.9956 26.6341C31.2003 26.8749 31.2812 27.2109 31.222 27.5813Z" fill="#179BD7"/>
<path d="M15.1373 19.8254L15.481 17.6424L14.7154 17.6246H11.0597L13.6003 1.51572C13.608 1.46708 13.6337 1.42174 13.6712 1.38954C13.7087 1.35734 13.7567 1.3396 13.8066 1.3396H19.9707C22.0171 1.3396 23.4293 1.76544 24.1667 2.60593C24.5123 3.00024 24.7325 3.41227 24.839 3.86571C24.9506 4.3415 24.9527 4.90994 24.8435 5.60324L24.8356 5.65384V6.09807L25.1814 6.29392C25.4725 6.44834 25.7037 6.62511 25.8811 6.82752C26.177 7.16464 26.3682 7.59311 26.449 8.10109C26.5324 8.62353 26.5048 9.2452 26.3682 9.94902C26.2105 10.7586 25.9555 11.4638 25.6112 12.0408C25.2943 12.5724 24.8908 13.0133 24.4118 13.3551C23.9544 13.6797 23.4109 13.9262 22.7965 14.084C22.201 14.2389 21.5223 14.3172 20.7777 14.3172H20.298C19.955 14.3172 19.6217 14.4407 19.3603 14.6622C19.0981 14.8883 18.9244 15.197 18.8713 15.5349L18.8351 15.7314L18.2279 19.5789L18.2003 19.7202C18.1931 19.7651 18.1806 19.7874 18.1623 19.8025C18.1458 19.8162 18.1222 19.8254 18.0991 19.8254H15.1373Z" fill="#253B80"/>
<path d="M25.5087 5.70483C25.4903 5.82246 25.4693 5.94271 25.4457 6.06626C24.6326 10.2399 21.8517 11.6817 18.2996 11.6817H16.4912C16.0568 11.6817 15.6908 11.9971 15.6231 12.4256L14.6971 18.298L14.4349 19.9625C14.3908 20.2438 14.6078 20.4975 14.8916 20.4975H18.0993C18.4791 20.4975 18.8017 20.2215 18.8615 19.8469L18.8931 19.6839L19.4971 15.8513L19.5358 15.6411C19.5949 15.2652 19.9182 14.9892 20.298 14.9892H20.7777C23.8854 14.9892 26.3183 13.7275 27.0294 10.0762C27.3264 8.55098 27.1726 7.27741 26.3866 6.3817C26.1488 6.1116 25.8537 5.88751 25.5087 5.70483Z" fill="#179BD7"/>
<path d="M24.658 5.36599C24.5339 5.32984 24.4056 5.29698 24.2741 5.26742C24.1421 5.23851 24.0067 5.21288 23.8674 5.19054C23.3797 5.11167 22.8455 5.07422 22.2731 5.07422H17.4417C17.3227 5.07422 17.2098 5.10116 17.1086 5.14979C16.8858 5.2569 16.7202 5.46786 16.6801 5.72611L15.6522 12.2359L15.6227 12.4258C15.6904 11.9974 16.0564 11.6819 16.4908 11.6819H18.2992C21.8513 11.6819 24.6324 10.2395 25.4453 6.06652C25.4695 5.94298 25.4899 5.82272 25.5083 5.7051C25.3027 5.596 25.0798 5.50269 24.8399 5.42316C24.7809 5.40345 24.7198 5.3844 24.658 5.36599Z" fill="#222D65"/>
<path d="M16.6801 5.72621C16.7202 5.46793 16.886 5.25699 17.1086 5.15053C17.2106 5.10189 17.3229 5.07495 17.4417 5.07495H22.2733C22.8457 5.07495 23.3799 5.11241 23.8674 5.19127C24.0068 5.21361 24.1423 5.23925 24.2743 5.26815C24.4058 5.29774 24.5339 5.3306 24.6581 5.36673C24.7198 5.38513 24.7809 5.40418 24.8407 5.42325C25.0806 5.50276 25.3034 5.59674 25.509 5.70517C25.751 4.16282 25.5071 3.11268 24.6733 2.16177C23.7539 1.11493 22.0945 0.666748 19.9713 0.666748H13.807C13.3733 0.666748 13.0034 0.982168 12.9363 1.4113L10.3689 17.6858C10.3182 18.0078 10.5666 18.2983 10.8912 18.2983H14.6969L15.6524 12.236L16.6801 5.72621Z" fill="#253B80"/>
</svg>
