<svg width="45" height="45" viewBox="0 0 45 45" fill="none" xmlns="http://www.w3.org/2000/svg">
<path d="M10.615 16.875H7.78526C7.78526 16.4126 7.73004 16.0951 7.61961 15.9364C7.44707 15.7017 6.98464 15.5844 6.22544 15.5844C5.48694 15.5844 4.99691 15.6534 4.75535 15.7845C4.51379 15.9226 4.39646 16.2193 4.39646 16.668C4.39646 17.0821 4.49998 17.3512 4.71394 17.4824C4.86578 17.579 5.06593 17.6273 5.3213 17.648L5.89415 17.6894C7.11578 17.7722 7.88188 17.8275 8.18556 17.862C9.15182 17.9586 9.85581 18.214 10.2906 18.635C10.6357 18.9594 10.8359 19.3873 10.9049 19.9118C10.9463 20.2293 10.9601 20.5813 10.9601 20.9816C10.9601 21.8927 10.8704 22.5621 10.6978 22.9831C10.3803 23.7562 9.67636 24.2462 8.57207 24.4532C8.10964 24.543 7.40566 24.5844 6.4532 24.5844C4.86578 24.5844 3.76149 24.4877 3.13342 24.3014C2.36731 24.0667 1.86348 23.5974 1.61501 22.8865C1.47698 22.4931 1.40796 21.8374 1.40796 20.9126H4.23771C4.23771 21.0161 4.23771 21.092 4.23771 21.1473C4.23771 21.6373 4.37575 21.9548 4.65872 22.0928C4.85198 22.1894 5.08664 22.2446 5.36271 22.2446H6.40489C6.93633 22.2446 7.27452 22.217 7.41946 22.1618C7.68173 22.0583 7.85428 21.8927 7.9371 21.6649C7.97851 21.5269 7.99921 21.3405 7.99921 21.1196C7.99921 20.6227 7.81977 20.319 7.45397 20.2086C7.31593 20.1672 6.68786 20.1051 5.56287 20.0292C4.65872 19.967 4.03066 19.9049 3.67176 19.8428C2.74692 19.6703 2.12575 19.3114 1.81517 18.773C1.546 18.3175 1.40796 17.6135 1.40796 16.6818C1.40796 15.9709 1.48388 15.4049 1.62882 14.977C1.77376 14.5491 2.00842 14.2247 2.33971 14.0038C2.81593 13.6587 3.4302 13.4655 4.1756 13.4034C4.79676 13.3482 5.48004 13.3206 6.23925 13.3206C7.42636 13.3206 8.27529 13.3896 8.77912 13.5276C10.0146 13.8589 10.6288 14.7907 10.6288 16.3091C10.6495 16.4402 10.6357 16.6265 10.615 16.875Z" fill="#10298E"/>
<path d="M23.0797 24.5844V13.2654H27.5176H28.2147H28.753C29.5329 13.2654 30.1265 13.3275 30.5337 13.4586C31.4654 13.7485 32.0935 14.349 32.411 15.2531C32.5766 15.7293 32.6595 16.4402 32.6595 17.3996C32.6595 18.5453 32.5697 19.3735 32.3834 19.8773C32.0176 20.8712 31.2722 21.4441 30.1403 21.589C30.0092 21.6097 29.4432 21.6304 28.4424 21.6442L27.9386 21.6649H26.1234V24.5913H23.0797V24.5844ZM26.1234 19.0353H28.0214C28.6219 19.0146 28.9877 18.9663 29.1188 18.8973C29.2983 18.8007 29.4225 18.6005 29.4846 18.3037C29.526 18.1036 29.5398 17.8137 29.5398 17.4203C29.5398 16.9441 29.4984 16.5852 29.4225 16.3574C29.3121 16.033 29.0498 15.8329 28.6357 15.7638C28.5529 15.75 28.3596 15.7431 28.0421 15.7431H26.1165L26.1234 19.0353C26.1303 19.0353 26.1234 19.0353 26.1234 19.0353Z" fill="#10298E"/>
<path d="M39.1611 22.6243H35.089L34.5437 24.5776H31.3896L34.7922 13.2585H39.3888L42.8259 24.5776H39.7408L39.1611 22.6243ZM38.5606 20.4227L37.1319 15.5154L35.7446 20.4227H38.5606Z" fill="#10298E"/>
<path d="M18.8765 14.8597C20.1327 14.8597 21.2508 15.4394 21.9893 16.3436L22.6449 14.9356C21.6166 13.9625 20.2224 13.3689 18.6764 13.3689C16.2745 13.3689 14.2247 14.8183 13.3827 16.8681H12.0989L11.3397 18.4901H12.9824C12.9686 18.6419 12.9617 18.7937 12.9617 18.9456C12.9617 19.1319 12.9686 19.3114 12.9893 19.4977H12.161L11.4018 21.1197H13.4103C14.273 23.1212 16.3021 24.5223 18.6626 24.5223C19.8497 24.5223 20.954 24.1634 21.8719 23.556V21.5683C21.1334 22.4103 20.0567 22.9348 18.8558 22.9348C17.4548 22.9348 16.2193 22.2102 15.4946 21.1128H19.6909L20.4501 19.4908H14.8804C14.8528 19.2976 14.839 19.0974 14.839 18.8973C14.839 18.7592 14.8459 18.6281 14.8597 18.4901H20.9195L21.6787 16.8681H15.3842C16.0951 15.6672 17.3926 14.8597 18.8765 14.8597Z" fill="#FFBE00"/>
<path d="M18.8765 14.908C20.0775 14.908 21.1956 15.4463 21.9548 16.3781L22.0031 16.4402L22.0376 16.3712L22.6932 14.9632L22.7071 14.9287L22.6794 14.908C21.5959 13.8865 20.1741 13.3206 18.6764 13.3206C17.5031 13.3206 16.3781 13.6656 15.4187 14.3144C14.4801 14.9425 13.7623 15.8259 13.3344 16.8543L13.3758 16.8267H12.092H12.0575L12.0437 16.8543L11.2845 18.4762L11.25 18.5453H11.3259H12.9686L12.9202 18.49C12.9064 18.6626 12.8995 18.8075 12.8995 18.9456C12.8995 19.125 12.9064 19.3114 12.9271 19.4977L12.9755 19.4425H12.1472H12.1127L12.0989 19.4701L11.3466 21.0782L11.3121 21.1472H11.388H13.3965L13.3551 21.1196C14.2592 23.204 16.3367 24.5568 18.6557 24.5568C19.8152 24.5568 20.9333 24.2186 21.8926 23.5836L21.9133 23.5698V23.5422V21.5545V21.4233L21.8305 21.5199C21.0782 22.3827 19.9877 22.8727 18.8489 22.8727C17.51 22.8727 16.2676 22.2032 15.5291 21.0782L15.4877 21.1541H19.684H19.7186L19.7324 21.1265L20.4916 19.5046L20.5261 19.4356H20.4502H14.8804L14.9287 19.477C14.9011 19.2838 14.8873 19.0836 14.8873 18.8834C14.8873 18.7523 14.8942 18.6143 14.908 18.4831L14.8597 18.5245H20.9264H20.9609L20.9747 18.4969L21.7339 16.875L21.7684 16.806H21.6925H15.398L15.4394 16.8819C16.1503 15.6672 17.4686 14.908 18.8765 14.908ZM15.398 16.9164H21.6925L21.6511 16.8474L20.8988 18.4693L20.9402 18.4417H14.8804H14.839L14.8321 18.4831C14.8183 18.6212 14.8113 18.7592 14.8113 18.8972C14.8113 19.0974 14.8252 19.2976 14.8528 19.5046L14.8597 19.546H14.9011H20.4778L20.4363 19.477L19.6771 21.0989L19.7186 21.0713H15.5222H15.4325L15.4808 21.1472C16.24 22.2999 17.5031 22.99 18.8834 22.99C20.0498 22.99 21.161 22.4862 21.934 21.6028L21.8512 21.5683V23.556L21.8719 23.5146C20.9333 24.1426 19.829 24.4739 18.6902 24.4739C16.4126 24.4739 14.3696 23.1488 13.4793 21.0989L13.4655 21.0713H13.431H11.4225L11.464 21.1403L12.2163 19.5184L12.1748 19.546H13.0031H13.0583L13.0514 19.4908C13.0307 19.3045 13.0238 19.125 13.0238 18.9456C13.0238 18.8075 13.0307 18.6626 13.0445 18.4969V18.4417H12.9893H11.3466L11.388 18.5107L12.1472 16.8888L12.1058 16.9164H13.3896H13.4241L13.4379 16.8888C13.852 15.8742 14.5629 15.0115 15.4808 14.3903C16.4264 13.7554 17.5307 13.4172 18.6833 13.4172C20.1603 13.4172 21.5544 13.9693 22.6173 14.9701L22.6035 14.9149L21.9479 16.3229L22.0307 16.3091C21.2508 15.3566 20.1051 14.8045 18.8765 14.8045C17.434 14.8045 16.0882 15.5844 15.3635 16.8405L15.3221 16.9164H15.398Z" fill="#10298E"/>
<path d="M1.9187 25.5981H2.89876V30.3466H5.74232V31.1886H1.9187V25.5981Z" fill="#333333"/>
<path d="M10.0284 30.2846C10.0284 30.5054 10.0767 30.5883 10.2354 30.5883C10.2906 30.5883 10.3597 30.5883 10.4563 30.5745V31.1956C10.3251 31.2439 10.0422 31.2992 9.89033 31.2992C9.53144 31.2992 9.26917 31.1749 9.20015 30.8022C8.84815 31.1473 8.2753 31.2992 7.79907 31.2992C7.07438 31.2992 6.4118 30.9058 6.4118 30.112C6.4118 29.0975 7.21932 28.9387 7.97162 28.849C8.61349 28.7317 9.18634 28.8007 9.18634 28.2762C9.18634 27.8137 8.71012 27.724 8.34432 27.724C7.84049 27.724 7.48849 27.9311 7.44708 28.3659H6.55674C6.61886 27.3237 7.50229 27.02 8.39953 27.02C9.19325 27.02 10.0215 27.3444 10.0215 28.1933L10.0284 30.2846ZM9.13803 29.1596C8.86196 29.339 8.43404 29.3321 8.04064 29.4012C7.66104 29.4633 7.31595 29.6082 7.31595 30.0706C7.31595 30.4709 7.82668 30.5883 8.13726 30.5883C8.53067 30.5883 9.13803 30.3812 9.13803 29.8222V29.1596Z" fill="#333333"/>
<path d="M12.0092 29.8842C12.0575 30.4019 12.4509 30.5882 12.9271 30.5882C13.2653 30.5882 13.852 30.5192 13.8244 30.0568C13.8037 29.5874 13.1549 29.5322 12.4992 29.3873C11.8435 29.2492 11.2017 29.0077 11.2017 28.1864C11.2017 27.3029 12.1541 27.0269 12.8926 27.0269C13.7208 27.0269 14.4731 27.3719 14.5836 28.2692H13.6518C13.5759 27.8482 13.2239 27.7308 12.8305 27.7308C12.5751 27.7308 12.092 27.793 12.092 28.145C12.092 28.5867 12.7477 28.6488 13.4102 28.7937C14.059 28.9456 14.7216 29.1733 14.7216 29.9808C14.7216 30.9471 13.7484 31.2991 12.9133 31.2991C11.8987 31.2991 11.1395 30.8436 11.1188 29.8911H12.0092V29.8842Z" fill="#333333"/>
<path d="M15.3359 27.1373H16.0054V25.9226H16.9026V27.1373H17.7101V27.7999H16.9026V29.9671C16.9026 30.3329 16.9371 30.5192 17.3305 30.5192C17.4547 30.5192 17.579 30.5192 17.7101 30.4847V31.1749C17.5169 31.1887 17.3305 31.2232 17.1304 31.2232C16.1986 31.2232 16.0261 30.8643 16.0123 30.1879V27.7999H15.3428L15.3359 27.1373Z" fill="#333333"/>
<path d="M19.3734 29.8842C19.4217 30.4019 19.8151 30.5882 20.2914 30.5882C20.6296 30.5882 21.2162 30.5192 21.1886 30.0568C21.1679 29.5874 20.5191 29.5322 19.8635 29.3873C19.2078 29.2492 18.5659 29.0077 18.5659 28.1864C18.5659 27.3029 19.5184 27.0269 20.2569 27.0269C21.0851 27.0269 21.8374 27.3719 21.9478 28.2692H21.0161C20.9401 27.8482 20.5882 27.7308 20.1948 27.7308C19.9394 27.7308 19.4563 27.793 19.4563 28.145C19.4563 28.5867 20.1119 28.6488 20.7745 28.7937C21.4233 28.9456 22.0859 29.1733 22.0859 29.9808C22.0859 30.9471 21.1127 31.2991 20.2776 31.2991C19.263 31.2991 18.4969 30.8436 18.4831 29.8911H19.3734V29.8842Z" fill="#333333"/>
<path d="M25.8405 28.4901C25.7715 27.9932 25.4126 27.7309 24.9157 27.7309C24.4532 27.7309 23.8045 27.9725 23.8045 29.201C23.8045 29.8705 24.1012 30.5883 24.8743 30.5883C25.3919 30.5883 25.7508 30.2432 25.8405 29.6634H26.7378C26.5721 30.7125 25.9233 31.2923 24.8812 31.2923C23.6112 31.2923 22.9141 30.395 22.9141 29.201C22.9141 27.9794 23.5836 27.02 24.9088 27.02C25.8474 27.02 26.648 27.4893 26.7308 28.4832L25.8405 28.4901Z" fill="#333333"/>
<path d="M27.8075 25.5981H28.7047V27.6756H28.7185C28.9394 27.3098 29.4018 27.0337 29.9333 27.0337C30.8098 27.0337 31.3688 27.5031 31.3688 28.4141V31.1955H30.4716V28.6488C30.4578 28.0138 30.2024 27.7377 29.6779 27.7377C29.0843 27.7377 28.6978 28.207 28.6978 28.8006V31.1886H27.8006L27.8075 25.5981Z" fill="#333333"/>
<path d="M32.6526 27.1373H33.4946V27.9241H33.5084C33.6119 27.4962 34.1434 27.0269 34.6955 27.0269C34.9026 27.0269 34.9509 27.0407 35.0337 27.0476V27.9103C34.9095 27.8965 34.7784 27.8689 34.6541 27.8689C34.0399 27.8689 33.5567 28.3658 33.5567 29.2562V31.1818H32.6595V27.1373H32.6526Z" fill="#333333"/>
<path d="M35.7791 25.5981H36.6763V26.4402H35.7791V25.5981ZM35.7791 27.1373H36.6763V31.1886H35.7791V27.1373Z" fill="#333333"/>
<path d="M37.5874 27.1373H38.2569V26.7991C38.2569 25.7639 38.7952 25.5913 39.375 25.5913C39.658 25.5913 39.8581 25.6051 40.0031 25.6465V26.3436C39.8857 26.3091 39.7684 26.2953 39.5889 26.2953C39.3474 26.2953 39.1472 26.3781 39.1472 26.7163V27.1304H39.9064V27.793H39.1472V31.1749H38.25V27.793H37.5805L37.5874 27.1373Z" fill="#333333"/>
<path d="M40.3896 27.1373H41.0591V25.9226H41.9563V27.1373H42.7638V27.7999H41.9563V29.9671C41.9563 30.3329 41.9908 30.5192 42.3842 30.5192C42.5084 30.5192 42.6327 30.5192 42.7638 30.4847V31.1749C42.5706 31.1887 42.3842 31.2232 42.1841 31.2232C41.2523 31.2232 41.0798 30.8643 41.066 30.1879V27.7999H40.3965L40.3896 27.1373Z" fill="#333333"/>
</svg>
