<svg width="44" height="15" viewBox="0 0 44 15" fill="none" xmlns="http://www.w3.org/2000/svg">
<path fill-rule="evenodd" clip-rule="evenodd" d="M10.9374 14.2172H7.18144L4.36489 3.3162C4.23121 2.81476 3.94736 2.37145 3.52982 2.16251C2.48781 1.63745 1.33959 1.21958 0.0869751 1.00883V0.589138H6.13759C6.97267 0.589138 7.59897 1.21958 7.70336 1.95176L9.16473 9.81501L12.9189 0.589138H16.5705L10.9374 14.2172ZM18.6582 14.2172H15.1109L18.0319 0.589138H21.5791L18.6582 14.2172ZM26.1684 4.36483C26.2728 3.63083 26.8991 3.21115 27.6298 3.21115C28.778 3.10577 30.0288 3.31652 31.0726 3.83977L31.6989 0.905587C30.6551 0.485899 29.5069 0.275146 28.4649 0.275146C25.022 0.275146 22.5168 2.16283 22.5168 4.78271C22.5168 6.77577 24.2913 7.82226 25.5439 8.45271C26.8991 9.08133 27.421 9.50102 27.3166 10.1296C27.3166 11.0726 26.2728 11.4923 25.2308 11.4923C23.9782 11.4923 22.7256 11.178 21.5792 10.6529L20.9529 13.5889C22.2055 14.1121 23.5606 14.3229 24.8132 14.3229C28.6736 14.4264 31.0726 12.5406 31.0726 9.70995C31.0726 6.14533 26.1684 5.93639 26.1684 4.36483ZM43.487 14.2172L40.6705 0.589138H37.6451C37.0188 0.589138 36.3925 1.00883 36.1838 1.63745L30.9682 14.2172H34.6198L35.3487 12.2259H39.8354L40.2529 14.2172H43.487ZM38.167 4.25939L39.209 9.39557H36.2881L38.167 4.25939Z" fill="#172B85"/>
</svg>
